inDegrees=yes
name=ik_S55_A07_T02
DataType=double
version=3
OpenSimVersion=4.3-2021-08-27-4bc7ad9
endheader
time	pelvis_tilt	pelvis_list	pelvis_rotation	pelvis_tx	pelvis_ty	pelvis_tz	hip_flexion_r	hip_adduction_r	hip_rotation_r	knee_angle_r	knee_angle_r_beta	ankle_angle_r	subtalar_angle_r	mtp_angle_r	hip_flexion_l	hip_adduction_l	hip_rotation_l	knee_angle_l	knee_angle_l_beta	ankle_angle_l	subtalar_angle_l	mtp_angle_l	lumbar_extension	lumbar_bending	lumbar_rotation	arm_flex_r	arm_add_r	arm_rot_r	elbow_flex_r	pro_sup_r	wrist_flex_r	wrist_dev_r	arm_flex_l	arm_add_l	arm_rot_l	elbow_flex_l	pro_sup_l	wrist_flex_l	wrist_dev_l
20.03999999999966	-3.710455816973672	-1.171465897104552	17.68646949951033	0	0.9399999999999999	0	40.61682311616534	-11.12393777443801	-10.59125609056108	51.80726769518203	0.9042073977430204	0	0	0	40.61682311616534	-11.12393777443801	-10.59125609056108	51.80726769518203	0.9042073977430204	0	0	0	-3.75691878308573	-1.612054324068115	3.918392008466978	34.51025763293459	-23.77707561595455	0.8985380249415862	97.60072590760583	108.2493671094907	0	0	16.13163538758263	-18.75931796163366	-7.449131336768354	68.0088813733272	136.9378589865939	0	0
20.05999999999966	-3.704108600279113	-1.169375615429664	17.57035119715647	0	0.9399999999999999	0	40.61929418276546	-11.1217323063921	-10.59051209835521	51.80847247611482	0.9042284251370628	0	0	0	40.61929418276546	-11.1217323063921	-10.59051209835521	51.80847247611482	0.9042284251370628	0	0	0	-3.74853645120466	-1.615636645519558	4.017471795572215	32.69971551870569	-24.45120795753543	0.5133981370899515	98.51262171230516	107.3684381092487	0	0	16.13085752351803	-18.7557846350402	-7.560315890800483	67.97089992721772	136.9627386100578	0	0
20.07999999999966	-3.69572377299762	-1.168592574680072	17.45684747585279	0	0.9399999999999999	0	40.6220006247643	-11.11931742640683	-10.58969718863546	51.8097907786479	0.9042514338568025	0	0	0	40.6220006247643	-11.11931742640683	-10.58969718863546	51.8097907786479	0.9042514338568025	0	0	0	-3.738969658713447	-1.620396087370907	4.09785911283649	30.89225759170317	-24.84040188619861	0.2132252587990122	98.96426696277203	107.3671692892142	0	0	16.10216487562947	-18.76684674734294	-7.609114037558891	67.96585980666237	136.9461330028664	0	0
20.09999999999966	-3.67546463544325	-1.148211274551951	17.36125433127706	0	0.9399999999999999	0	40.62407814764142	-11.11747051020842	-10.58907302476469	51.81080518671533	0.904269138617538	0	0	0	40.62407814764142	-11.11747051020842	-10.58907302476469	51.81080518671533	0.904269138617538	0	0	0	-3.712407471163343	-1.610464835127128	4.184419690829492	28.98441302842864	-25.027061568943	-0.1837237116813701	98.98691161823608	107.8422294496641	0	0	16.07015152468262	-18.76154632563954	-7.740947000043986	67.93685891683693	136.9752011149434	0	0
20.11999999999966	-3.668916774397374	-1.14360937994804	17.31224374623486	0	0.9399999999999999	0	40.62605819631168	-11.11575585165583	-10.5884882664235	51.81179539508368	0.9042864210138465	0	0	0	40.62605819631168	-11.11575585165583	-10.5884882664235	51.81179539508368	0.9042864210138465	0	0	0	-3.703755785778965	-1.611013917094852	4.239430360239157	28.94902146152917	-24.95714525409741	-0.1484298484362508	97.01142113113515	108.0434576685631	0	0	16.13828856022767	-18.78578728960551	-7.838599933175742	67.88129345586209	136.9684059254406	0	0
20.13999999999966	-3.659609912578811	-1.122601055088999	16.97669377921302	0	0.9399999999999999	0	40.62909449088673	-11.11305540577508	-10.5875753801033	51.81327403158241	0.9043122280891894	0	0	0	40.62909449088673	-11.11305540577508	-10.5875753801033	51.81327403158241	0.9043122280891894	0	0	0	-3.683841245240848	-1.613925205014852	4.573870666163338	25.03188637305998	-25.18840862424443	-2.047347294708295	98.1190508411068	108.4731426580744	0	0	16.15810394523979	-18.72189431793124	-7.810563856940983	67.81248700924091	136.9703721052051	0	0
20.15999999999966	-3.62333430237315	-1.097068110486859	16.74815798306057	0	0.9399999999999999	0	40.63060116698309	-11.11172278687042	-10.58712394058387	51.81401084789761	0.9043250879598721	0	0	0	40.63060116698309	-11.11172278687042	-10.58712394058387	51.81401084789761	0.9043250879598721	0	0	0	-3.638875703113865	-1.615012664611475	4.800364160620293	23.06001541254045	-25.00095317374144	-3.333768548029417	97.02343793849137	108.6579799730607	0	0	16.10955597691266	-18.66637299261183	-7.824817664924214	67.78070733626987	136.9975645104176	0	0
